<svg version="1.1" id="Layer_1" xmlns="http://www.w3.org/2000/svg" x="0" y="0" viewBox="0 0 667 247" style="enable-background:new 0 0 667 247" xml:space="preserve"><style>.st0{fill:#fad000}</style><path class="st0" d="M586.55 121.52c-.62-6.45-1.45-13.65 11.42-12.96 9.06.49 11.32 3.34 10.6 11.55-.86 9.73.69 18.55 13.56 17.8 12.22-.71 11.25-9.94 11.62-18.57.43-10.11-4.09-16.94-12.45-21.87-6.85-4.04-13.98-7.72-20.37-12.39-14.37-10.5-18.86-29.07-11.92-46.72 5.74-14.58 18.03-21.5 36.15-20.37 19.42 1.21 33.95 20.29 30.8 39.46-1.42 8.61-7.43 5.27-11.82 5.56-4.71.31-10.96 2.08-10.55-6.67.31-6.63.41-13.65-8.01-15.88-5.71-1.52-11.97-1.6-14.93 4.28-3.74 7.43-4.48 15.87 2.57 21.92 5.61 4.81 12.43 8.24 18.83 12.09 21.47 12.93 29.8 35.51 21.76 59.2-5.57 16.4-21.12 24.61-40.8 21.53-16.11-2.52-26.25-16.36-26.46-37.96zM173.79 88.9c0-12.66-.49-25.34.11-37.98 1.03-22.05 15.63-34.28 38.39-32.95 18.93 1.11 31.12 16.08 31.01 36.42-.04 8.2-3.63 9.56-10.19 8.76-5.33-.65-13.32 2.97-12.4-7.78.79-9.33-2.1-15.97-12.88-15.57-10.83.41-12.35 7.87-12.29 16.7.15 22.04.15 44.08 0 66.12-.06 9.44 3.18 15.65 13.64 15.34 10.18-.3 12.61-7.15 11.41-15.51-1.64-11.44 3.09-14.54 13.92-13.75 6.75.49 8.46 2.48 8.74 9.03 1.09 26.28-11.03 41.77-33.78 42.13-21.15.33-34.6-11.83-35.58-32.99-.58-12.63-.1-25.31-.1-37.97zM96.45 87.48c0-19.69.39-39.4-.19-59.07-.24-8.15 2.38-10.46 10.29-10.11 13.57.59 27.23.85 40.77-.06 9.99-.67 9.92 4.42 10.22 11.78.34 8.35-1.73 12.61-10.78 11.03-1.37-.24-2.81-.03-4.21-.03-24.36.04-23.7.06-24.48 23.94-.35 10.85 3.02 14.48 13.26 12.67 10.46-1.85 9.42 5.13 9.72 11.96.33 7.33-1.04 12.21-9.71 10.54-12.14-2.34-14.3 4.19-12.99 14.1.12.92.02 1.87.02 2.81-.01 19.73.02 19.11 19.94 20.1 6.31.31 16.82-6.83 18.92 6.41 1.68 10.6.21 18.09-14.13 16.02-15.11-2.19-35.68 6.41-44.31-3.31-7.53-8.48-2.1-28.51-2.3-43.44-.14-8.46-.04-16.9-.04-25.34zM259.82 88.46c0-20.16.27-40.33-.15-60.48-.15-7.13 1.58-9.99 9.27-9.68 14.51.58 29.08.64 43.59.01 10.5-.46 7.84 6.54 8.14 12.14.31 5.82.8 11.78-8.16 10.6-2.3-.3-4.68-.05-7.03-.04-23.99.03-23.49.04-24 24.37-.21 9.69 2.2 14.05 12.23 12.24 9-1.63 10.76 2.66 10.86 10.99.11 9.08-2.31 13.26-11.71 11.55-9.67-1.76-11.43 2.94-11.34 11.68.26 24.87-.09 25.52 24.8 24.64 11.61-.41 15.79 2.59 14.67 14.54-.66 7-2.95 8.56-9.31 8.41-14.53-.36-29.08-.46-43.6.03-7.2.24-8.48-2.79-8.38-9.11.32-20.63.12-41.26.12-61.89zM508.96 88.07c0-19.66.46-39.34-.21-58.98-.3-8.88 2.59-11.24 11.12-10.82 14.01.68 28.1.64 42.12.04 10.76-.46 7.42 6.94 7.79 12.29.4 5.72 1.07 11.92-8.13 10.45-2.28-.36-4.67-.05-7.01-.05-24.06.03-23.57.04-24.09 24.29-.21 9.63 2.1 14.16 12.19 12.31 8.78-1.62 11.09 2.12 10.87 10.69-.21 8.21-.92 13.83-11.09 11.87-10.43-2-12.13 3.22-11.95 12.52.47 24.03.04 24.49 24.28 23.87 10.39-.27 16.74.47 15.35 13.68-.78 7.42-2.79 9.43-9.83 9.21-14.03-.44-28.1-.52-42.13.03-7.52.29-9.57-2.36-9.43-9.6.42-20.59.15-41.2.15-61.8zM360.83 99.34c0-15.02-.57-30.06.2-45.04.51-9.83-1.33-15.47-12.64-13.32-9.77 1.86-12.35-2.19-12.61-12.08-.3-11.12 5.36-10.64 12.9-10.52 16.42.25 32.88.72 49.26-.16 9.9-.53 10.41 4.22 10.22 11.74-.17 6.62.15 12.84-9.23 11-14.59-2.87-16.47 4.35-16.09 16.95.91 30.01-.1 60.07.52 90.09.2 9.54-2.94 11.59-11.91 11.66-8.8.07-11.2-2.42-10.83-11.05.71-16.4.21-32.85.21-49.27zM446.51 100.16c0-15.94-.57-31.91.22-47.81.47-9.4-2.68-12.79-11.71-11.35-8.97 1.43-12.98-.77-13.1-11.53-.13-11.63 5.48-11.31 13.64-11.12 15.93.38 31.91.69 47.81-.11 9.2-.46 10.97 3.02 10.64 11.24-.3 7.28-.12 13.52-10.08 11.5-14.03-2.84-15.6 4.58-15.33 16.26.69 29.99.04 60.01.36 90.02.09 7.99-.29 12.56-10.79 12.5-10.68-.06-12.22-4.08-11.83-13.19.66-15.45.17-30.94.17-46.41zM79.8 148.01c-3.17-13.68-7.08-27.2-10.8-40.75-1.27-4.63-1.6-8.43 1.88-12.92 13.89-17.91 12-38.48 4.6-57.37-7.32-18.68-25.61-19.51-43.17-18.54-4.21.23-8.49.43-12.65-.05-7.57-.88-9.56 2.35-9.42 9.57.41 20.16.14 40.33.14 60.49 0 20.63.48 41.28-.21 61.89-.32 9.6 4.88 8.93 11.36 9.13 6.96.21 11.56-.19 10.87-9.39-.85-11.19-.45-22.5-.06-33.74.14-3.89-2.99-9.67 5.06-10.64 7.51-.9 9.68 2.91 11.18 9.13 3.08 12.75 6.58 25.4 10.09 38.04 3.36 12.1 13.41 6.36 19.88 5.83 7.54-.63 2.05-7.26 1.25-10.68zM41.4 83.58c-13.82.18-8.02-9.24-9.16-15.39-.34-1.82-.05-3.75-.05-5.62 0-3.29-.05-6.57.01-9.86.12-5.77-2.07-12.63 8.33-11.9 8.39.59 16.55.15 16.83 11.73.11 4.69-.31 9.42.1 14.07 1.05 11.89-3.61 16.8-16.06 16.97zM10 228.26v-46.55h4.32v18.74c1.81-2.22 3.83-3.88 6.07-4.98 2.24-1.1 4.7-1.65 7.37-1.65 4.75 0 8.8 1.72 12.16 5.17 3.36 3.45 5.04 7.63 5.04 12.55 0 4.86-1.7 9-5.09 12.44-3.39 3.44-7.47 5.16-12.24 5.16-2.73 0-5.21-.59-7.43-1.76-2.22-1.17-4.18-2.93-5.89-5.28v6.17H10zm17.29-3.3c2.4 0 4.62-.59 6.65-1.78 2.03-1.18 3.65-2.84 4.85-4.99 1.2-2.14 1.8-4.4 1.8-6.79 0-2.39-.61-4.66-1.82-6.82s-2.84-3.84-4.88-5.05-4.22-1.81-6.54-1.81c-2.36 0-4.6.6-6.73 1.81s-3.76 2.82-4.9 4.86c-1.14 2.04-1.71 4.33-1.71 6.88 0 3.89 1.28 7.14 3.83 9.75 2.56 2.63 5.71 3.94 9.45 3.94zM68.74 193.81c5.17 0 9.46 1.87 12.86 5.62 3.09 3.42 4.64 7.46 4.64 12.13 0 4.69-1.63 8.79-4.9 12.3-3.27 3.51-7.47 5.26-12.6 5.26-5.15 0-9.36-1.75-12.63-5.26-3.27-3.51-4.9-7.61-4.9-12.3 0-4.65 1.55-8.68 4.64-12.1 3.4-3.76 7.7-5.65 12.89-5.65zm-.01 4.23c-3.59 0-6.68 1.33-9.26 3.98s-3.87 5.86-3.87 9.63c0 2.43.59 4.69 1.77 6.79 1.18 2.1 2.77 3.72 4.77 4.86 2 1.14 4.2 1.71 6.6 1.71 2.4 0 4.59-.57 6.6-1.71 2-1.14 3.59-2.76 4.77-4.86 1.18-2.1 1.77-4.36 1.77-6.79 0-3.77-1.3-6.98-3.89-9.63s-5.69-3.98-9.26-3.98zM94.24 194.68h4.32v6.02c1.73-2.3 3.64-4.03 5.74-5.17 2.1-1.14 4.38-1.71 6.85-1.71 2.51 0 4.74.64 6.68 1.91 1.94 1.28 3.38 2.99 4.31 5.15.93 2.16 1.39 5.53 1.39 10.09v17.29h-4.32v-16.02c0-3.87-.16-6.45-.48-7.75-.5-2.22-1.46-3.89-2.88-5.02-1.42-1.12-3.27-1.68-5.56-1.68-2.61 0-4.96.86-7.02 2.59-2.07 1.73-3.43 3.87-4.09 6.42-.41 1.67-.62 4.71-.62 9.14v12.32h-4.32v-33.58zM132.79 194.68h4.32v6.02c1.73-2.3 3.64-4.03 5.74-5.17 2.1-1.14 4.38-1.71 6.85-1.71 2.51 0 4.74.64 6.68 1.91 1.94 1.28 3.38 2.99 4.31 5.15.93 2.16 1.39 5.53 1.39 10.09v17.29h-4.32v-16.02c0-3.87-.16-6.45-.48-7.75-.5-2.22-1.46-3.89-2.88-5.02-1.42-1.12-3.27-1.68-5.56-1.68-2.61 0-4.96.86-7.02 2.59-2.07 1.73-3.43 3.87-4.09 6.42-.41 1.67-.62 4.71-.62 9.14v12.32h-4.32v-33.58zM199.62 217.12l3.64 1.91c-1.19 2.35-2.57 4.24-4.14 5.68a16.548 16.548 0 0 1-5.28 3.29c-1.96.75-4.17 1.13-6.64 1.13-5.48 0-9.76-1.8-12.85-5.39s-4.63-7.65-4.63-12.18c0-4.26 1.31-8.06 3.92-11.39 3.32-4.24 7.75-6.36 13.32-6.36 5.73 0 10.3 2.17 13.72 6.51 2.43 3.07 3.67 6.89 3.71 11.48h-30.22c.08 3.9 1.33 7.1 3.74 9.59s5.39 3.74 8.93 3.74c1.71 0 3.37-.3 4.99-.89 1.62-.59 2.99-1.38 4.13-2.37s2.35-2.56 3.66-4.75zm0-9.05c-.58-2.3-1.42-4.15-2.52-5.53s-2.56-2.49-4.37-3.33a13.45 13.45 0 0 0-5.72-1.27c-3.3 0-6.13 1.06-8.5 3.18-1.73 1.54-3.04 3.86-3.92 6.95h25.03zM229.32 198.35l-2.78 2.87c-2.31-2.24-4.57-3.37-6.78-3.37-1.4 0-2.61.46-3.61 1.39-1 .93-1.5 2.01-1.5 3.24 0 1.09.41 2.13 1.24 3.12.82 1.01 2.56 2.19 5.2 3.55 3.22 1.67 5.4 3.27 6.56 4.82 1.13 1.56 1.7 3.32 1.7 5.28 0 2.76-.97 5.09-2.91 7.01-1.94 1.91-4.36 2.87-7.26 2.87a12.6 12.6 0 0 1-5.55-1.27c-1.76-.84-3.22-2.01-4.37-3.49l2.72-3.09c2.21 2.49 4.55 3.74 7.02 3.74 1.73 0 3.21-.55 4.42-1.67 1.22-1.11 1.83-2.42 1.83-3.92 0-1.24-.4-2.34-1.21-3.3-.8-.95-2.62-2.14-5.44-3.58-3.03-1.56-5.09-3.11-6.19-4.63-1.09-1.52-1.64-3.26-1.64-5.22 0-2.55.87-4.67 2.61-6.36 1.74-1.69 3.94-2.53 6.6-2.53 3.09 0 6.21 1.52 9.34 4.54zM288 181.71v46.55h-4.26v-5.77c-1.81 2.2-3.84 3.86-6.1 4.97-2.25 1.11-4.72 1.67-7.39 1.67-4.75 0-8.81-1.72-12.18-5.17-3.36-3.45-5.05-7.64-5.05-12.58 0-4.84 1.7-8.97 5.09-12.41 3.4-3.44 7.48-5.15 12.25-5.15 2.76 0 5.25.59 7.49 1.76 2.23 1.17 4.19 2.93 5.88 5.28v-19.14H288zm-17.27 16.27c-2.41 0-4.63.59-6.66 1.77-2.04 1.18-3.65 2.84-4.86 4.98-1.2 2.14-1.8 4.4-1.8 6.78 0 2.36.61 4.63 1.82 6.78 1.21 2.16 2.84 3.84 4.89 5.04 2.04 1.2 4.24 1.8 6.58 1.8 2.36 0 4.6-.6 6.72-1.79s3.75-2.81 4.89-4.84c1.14-2.03 1.71-4.33 1.71-6.88 0-3.88-1.28-7.13-3.84-9.74-2.56-2.59-5.71-3.9-9.45-3.9zM331.25 194.68v33.58h-4.26v-5.77c-1.81 2.2-3.84 3.86-6.1 4.97-2.25 1.11-4.72 1.67-7.39 1.67-4.75 0-8.81-1.72-12.18-5.17s-5.05-7.64-5.05-12.58c0-4.84 1.7-8.97 5.09-12.41 3.4-3.44 7.48-5.15 12.25-5.15 2.76 0 5.25.59 7.49 1.76 2.23 1.17 4.19 2.93 5.88 5.28v-6.17h4.27zm-17.27 3.3c-2.41 0-4.62.59-6.66 1.77-2.04 1.18-3.65 2.84-4.86 4.98-1.2 2.14-1.8 4.4-1.8 6.78 0 2.36.61 4.63 1.82 6.78 1.21 2.16 2.84 3.84 4.89 5.04 2.05 1.2 4.24 1.8 6.58 1.8 2.36 0 4.6-.6 6.72-1.79s3.75-2.81 4.89-4.84c1.14-2.03 1.71-4.33 1.71-6.88 0-3.88-1.28-7.13-3.84-9.74-2.56-2.59-5.71-3.9-9.45-3.9zM340.97 194.68h4.32v6.02c1.73-2.3 3.64-4.03 5.74-5.17 2.1-1.14 4.38-1.71 6.85-1.71 2.51 0 4.74.64 6.68 1.91 1.94 1.28 3.38 2.99 4.31 5.15.93 2.16 1.39 5.53 1.39 10.09v17.29h-4.32v-16.02c0-3.87-.16-6.45-.48-7.75-.5-2.22-1.46-3.89-2.88-5.02-1.42-1.12-3.27-1.68-5.56-1.68-2.61 0-4.96.86-7.02 2.59-2.07 1.73-3.43 3.87-4.09 6.42-.41 1.67-.62 4.71-.62 9.14v12.32h-4.32v-33.58zM396.41 198.35l-2.78 2.87c-2.31-2.24-4.57-3.37-6.78-3.37-1.4 0-2.61.46-3.61 1.39-1 .93-1.5 2.01-1.5 3.24 0 1.09.41 2.13 1.24 3.12.82 1.01 2.56 2.19 5.2 3.55 3.22 1.67 5.4 3.27 6.56 4.82 1.13 1.56 1.7 3.32 1.7 5.28 0 2.76-.97 5.09-2.91 7.01-1.94 1.91-4.36 2.87-7.26 2.87a12.6 12.6 0 0 1-5.55-1.27c-1.76-.84-3.22-2.01-4.37-3.49l2.72-3.09c2.21 2.49 4.55 3.74 7.02 3.74 1.73 0 3.21-.55 4.42-1.67 1.22-1.11 1.83-2.42 1.83-3.92 0-1.24-.4-2.34-1.21-3.3-.8-.95-2.62-2.14-5.44-3.58-3.03-1.56-5.09-3.11-6.19-4.63-1.09-1.52-1.64-3.26-1.64-5.22 0-2.55.87-4.67 2.61-6.36 1.74-1.69 3.94-2.53 6.6-2.53 3.09 0 6.21 1.52 9.34 4.54zM421.84 228.26v-46.55h4.32v18.74c1.81-2.22 3.83-3.88 6.07-4.98 2.24-1.1 4.7-1.65 7.37-1.65 4.75 0 8.8 1.72 12.16 5.17 3.36 3.45 5.04 7.63 5.04 12.55 0 4.86-1.7 9-5.09 12.44-3.39 3.44-7.47 5.16-12.24 5.16-2.73 0-5.21-.59-7.43-1.76-2.22-1.17-4.18-2.93-5.89-5.28v6.17h-4.31zm17.29-3.3c2.4 0 4.62-.59 6.65-1.78 2.03-1.18 3.65-2.84 4.85-4.99 1.2-2.14 1.8-4.4 1.8-6.79 0-2.39-.61-4.66-1.82-6.82s-2.84-3.84-4.88-5.05c-2.04-1.2-4.23-1.81-6.55-1.81-2.36 0-4.6.6-6.73 1.81-2.13 1.2-3.76 2.82-4.9 4.86-1.14 2.04-1.71 4.33-1.71 6.88 0 3.89 1.28 7.14 3.83 9.75 2.58 2.63 5.72 3.94 9.46 3.94zM480.59 193.81c5.17 0 9.46 1.87 12.86 5.62 3.09 3.42 4.64 7.46 4.64 12.13 0 4.69-1.63 8.79-4.9 12.3-3.27 3.51-7.47 5.26-12.6 5.26-5.15 0-9.36-1.75-12.63-5.26-3.27-3.51-4.9-7.61-4.9-12.3 0-4.65 1.55-8.68 4.64-12.1 3.39-3.76 7.69-5.65 12.89-5.65zm-.02 4.23c-3.59 0-6.68 1.33-9.26 3.98s-3.87 5.86-3.87 9.63c0 2.43.59 4.69 1.77 6.79 1.18 2.1 2.77 3.72 4.77 4.86 2 1.14 4.2 1.71 6.6 1.71s4.59-.57 6.6-1.71c2-1.14 3.59-2.76 4.77-4.86 1.18-2.1 1.77-4.36 1.77-6.79 0-3.77-1.3-6.98-3.89-9.63-2.6-2.65-5.69-3.98-9.26-3.98zM505.53 194.68h4.32v15.68c0 3.83.21 6.46.62 7.9.62 2.06 1.8 3.68 3.54 4.88 1.74 1.19 3.82 1.79 6.23 1.79 2.41 0 4.46-.58 6.14-1.74 1.68-1.16 2.84-2.69 3.48-4.58.43-1.3.65-4.04.65-8.24v-15.68h4.41v16.48c0 4.63-.54 8.12-1.62 10.46-1.08 2.35-2.71 4.18-4.88 5.51s-4.89 1.99-8.17 1.99-6-.66-8.2-1.99c-2.19-1.33-3.83-3.18-4.91-5.56s-1.62-5.95-1.62-10.73v-16.17zM577.11 201.65l-3.43 2.13c-2.96-3.93-7-5.9-12.12-5.9-4.09 0-7.49 1.32-10.19 3.95-2.7 2.63-4.05 5.83-4.05 9.59 0 2.45.62 4.75 1.87 6.91 1.24 2.16 2.95 3.83 5.12 5.03 2.17 1.19 4.6 1.79 7.29 1.79 4.93 0 8.96-1.96 12.09-5.9l3.43 2.25c-1.61 2.42-3.76 4.29-6.47 5.63-2.71 1.33-5.79 2-9.24 2-5.31 0-9.71-1.69-13.21-5.06s-5.25-7.48-5.25-12.32c0-3.25.82-6.27 2.45-9.06s3.88-4.96 6.74-6.53c2.86-1.56 6.06-2.35 9.6-2.35 2.22 0 4.37.34 6.44 1.02 2.07.68 3.82 1.56 5.26 2.65 1.44 1.1 2.66 2.49 3.67 4.17zM585.42 181.71h4.32v18.98c1.75-2.3 3.67-4.03 5.77-5.17 2.1-1.14 4.37-1.71 6.82-1.71 2.51 0 4.74.64 6.68 1.91 1.94 1.28 3.38 2.99 4.31 5.14.93 2.15 1.39 5.52 1.39 10.11v17.29h-4.32v-16.02c0-3.87-.15-6.45-.46-7.75-.54-2.22-1.51-3.89-2.92-5.02-1.41-1.12-3.26-1.68-5.54-1.68-2.61 0-4.95.86-7.02 2.59-2.07 1.73-3.43 3.87-4.09 6.42-.41 1.65-.62 4.69-.62 9.14v12.32h-4.32v-46.55zM652.25 217.12l3.64 1.91c-1.19 2.35-2.57 4.24-4.14 5.68a16.548 16.548 0 0 1-5.28 3.29c-1.96.75-4.17 1.13-6.64 1.13-5.48 0-9.76-1.8-12.85-5.39s-4.64-7.65-4.64-12.18c0-4.26 1.31-8.06 3.92-11.39 3.32-4.24 7.75-6.36 13.32-6.36 5.73 0 10.3 2.17 13.72 6.51 2.43 3.07 3.67 6.89 3.71 11.48h-30.22c.08 3.9 1.33 7.1 3.74 9.59s5.39 3.74 8.93 3.74c1.71 0 3.37-.3 4.99-.89 1.62-.59 2.99-1.38 4.13-2.37 1.12-.97 2.35-2.56 3.67-4.75zm0-9.05c-.58-2.3-1.42-4.15-2.52-5.53s-2.56-2.49-4.37-3.33a13.45 13.45 0 0 0-5.72-1.27c-3.3 0-6.13 1.06-8.5 3.18-1.73 1.54-3.04 3.86-3.92 6.95h25.03z"/></svg>